<?xml version="1.0" encoding="UTF-8"?><svg id="a" xmlns="http://www.w3.org/2000/svg" viewBox="0 0 1407.04 412.13"><defs><style>.b{fill:#231f20;stroke-width:0px;}</style></defs><path class="b" d="M1269.21,125.89l-105.65.03v-.02l-84.94.03c-.35,0-.7,0-1.05-.03-10.34,0-18.81-8.46-18.81-18.81v-10.1c0-10.35,8.47-18.81,18.81-18.81h211.98c3.58,0,6.48-2.9,6.48-6.48v-26.15c0-3.58-2.9-6.48-6.48-6.48h-232.9c-23.92,0-43.5,19.57-43.5,43.5v45.44c0,20.21,16.48,37.03,36.76,37.02l105.65-.03v.02l84.94-.03c.35,0,.7,0,1.05.03h0c10.35,0,18.81,8.46,18.81,18.81v10.09c0,10.35-8.47,18.81-18.81,18.81h-191.77c-5.9,0-11.39-3.04-14.52-8.05l-88.44-141.54c-9.66-15.46-25.2-24.08-43.44-24.08h-50.71c-18.24,0-33.78,8.61-43.44,24.08l-96.12,153.83c-.11.17-1.19,1.28-2.25-.15l-25.56-31.29-.46-.56c2.64-.47,5.2-1.14,7.69-1.99l.33-.12c18.39-6.5,31.72-23.06,33.97-42.46.23-1.95.34-3.91.34-5.88v-29.86c0-36.07-29.51-65.58-65.58-65.58h-212.88c-7.92,0-14.35,6.42-14.35,14.35v10.38c0,7.92,6.42,14.35,14.35,14.35h205.05c18.81,0,34.2,15.39,34.2,34.2h0c0,18.81-15.39,34.2-34.2,34.2h-131.04v.14h-25.71c-3.5,0-6.99.3-10.44.91-6.21,1.08-12.23,3.12-17.84,6-2.03,1.04-4,2.19-5.9,3.45-17.7,11.67-28.46,31.37-28.46,52.6v2.85c0,1.28-1.68,1.76-2.36.68l-93.74-150.02c-9.66-15.46-25.2-24.08-43.44-24.08h-50.71c-18.24,0-33.78,8.61-43.44,24.08l-96.12,153.83c-9.49,15.18,1.43,34.87,19.33,34.87h0c7.86,0,15.16-4.05,19.33-10.71l91.94-147.14c3.71-5.93,9.85-9.34,16.85-9.34h34.93c7,0,13.14,3.41,16.85,9.34l91.94,147.14c1.35,2.15,2.91,4.48,5.06,6.68,3.11,3.16,7.32,4.04,12.11,4.04h52.72c7.92,0,14.35-6.42,14.35-14.35v-2.83h0v-7.14c0-22.98,18.8-41.77,41.77-41.77h98.09c4.31,0,8.39,1.94,11.11,5.27l45.37,55.55c2.72,3.34,6.8,5.27,11.11,5.27h48.63c6.51,0,12.12-3.81,14.77-9.31.34-.46.66-.92.96-1.41l91.94-147.14c3.71-5.93,9.85-9.34,16.85-9.34h34.93c7,0,13.14,3.41,16.85,9.34l91.94,147.14c4.17,6.67,11.47,10.71,19.33,10.71h238.85c23.93,0,43.5-19.58,43.5-43.5v-45.44c0-20.21-16.48-37.02-36.76-37.02Z"/><path class="b" d="M102.47,354.23c-.4,0-.76-.15-1.09-.45-.33-.3-.49-.67-.49-1.12,0-.2.05-.42.15-.67l18.04-48.29c.15-.5.44-.94.86-1.31.42-.37,1.01-.56,1.76-.56h8.16c.75,0,1.32.19,1.72.56.4.37.7.81.9,1.31l18.04,48.29c.05.25.08.47.08.67,0,.45-.15.82-.45,1.12s-.65.45-1.05.45h-6.51c-.7,0-1.21-.16-1.53-.49-.33-.32-.54-.64-.64-.94l-3.52-9.13h-22.24l-3.52,9.13c-.1.3-.31.61-.64.94s-.84.49-1.53.49h-6.51ZM117.29,335.07h16.99l-8.53-23.13-8.46,23.13Z"/><path class="b" d="M158.54,368.46c-.5,0-.92-.18-1.27-.52s-.52-.77-.52-1.27v-49.56c0-.5.17-.92.52-1.27s.77-.52,1.27-.52h5.91c.55,0,.99.18,1.31.52.32.35.49.77.49,1.27v3c1.2-1.6,2.77-2.92,4.72-3.97,1.95-1.05,4.37-1.57,7.26-1.57,2.65,0,4.94.42,6.89,1.27,1.95.85,3.57,2.06,4.87,3.63,1.3,1.57,2.3,3.43,2.99,5.58.7,2.15,1.1,4.52,1.2,7.11.05.85.07,1.72.07,2.62s-.03,1.8-.07,2.7c-.05,2.5-.42,4.8-1.12,6.92-.7,2.12-1.71,3.97-3.03,5.54-1.32,1.57-2.96,2.81-4.9,3.71-1.95.9-4.24,1.35-6.89,1.35s-4.99-.49-6.89-1.46c-1.9-.97-3.44-2.26-4.64-3.86v16.99c0,.5-.16.92-.49,1.27-.33.35-.76.52-1.31.52h-6.36ZM175.46,346.97c2.15,0,3.82-.46,5.02-1.39,1.2-.92,2.06-2.13,2.58-3.63.52-1.5.83-3.14.94-4.94.1-1.5.1-3,0-4.49-.1-1.8-.41-3.44-.94-4.94-.52-1.5-1.39-2.71-2.58-3.63-1.2-.92-2.87-1.38-5.02-1.38s-3.71.47-4.98,1.42c-1.27.95-2.2,2.16-2.77,3.63-.57,1.47-.91,2.98-1.01,4.53-.05.9-.07,1.85-.07,2.85s.02,1.97.07,2.92c.05,1.5.4,2.93,1.05,4.3.65,1.37,1.6,2.51,2.84,3.41,1.25.9,2.87,1.35,4.87,1.35Z"/><path class="b" d="M204.51,368.46c-.5,0-.92-.18-1.27-.52s-.52-.77-.52-1.27v-49.56c0-.5.17-.92.52-1.27s.77-.52,1.27-.52h5.91c.55,0,.99.18,1.31.52.32.35.49.77.49,1.27v3c1.2-1.6,2.77-2.92,4.72-3.97,1.95-1.05,4.37-1.57,7.26-1.57,2.65,0,4.94.42,6.89,1.27,1.95.85,3.57,2.06,4.87,3.63,1.3,1.57,2.3,3.43,2.99,5.58.7,2.15,1.1,4.52,1.2,7.11.05.85.07,1.72.07,2.62s-.03,1.8-.07,2.7c-.05,2.5-.42,4.8-1.12,6.92-.7,2.12-1.71,3.97-3.03,5.54-1.32,1.57-2.96,2.81-4.9,3.71-1.95.9-4.24,1.35-6.89,1.35s-4.99-.49-6.89-1.46c-1.9-.97-3.44-2.26-4.64-3.86v16.99c0,.5-.16.92-.49,1.27-.33.35-.76.52-1.31.52h-6.36ZM221.43,346.97c2.15,0,3.82-.46,5.02-1.39,1.2-.92,2.06-2.13,2.58-3.63.52-1.5.83-3.14.94-4.94.1-1.5.1-3,0-4.49-.1-1.8-.41-3.44-.94-4.94-.52-1.5-1.39-2.71-2.58-3.63-1.2-.92-2.87-1.38-5.02-1.38s-3.71.47-4.98,1.42c-1.27.95-2.2,2.16-2.77,3.63-.57,1.47-.91,2.98-1.01,4.53-.05.9-.07,1.85-.07,2.85s.02,1.97.07,2.92c.05,1.5.4,2.93,1.05,4.3.65,1.37,1.6,2.51,2.84,3.41,1.25.9,2.87,1.35,4.87,1.35Z"/><path class="b" d="M250.48,354.23c-.5,0-.92-.17-1.27-.52-.35-.35-.52-.77-.52-1.27v-49.56c0-.5.17-.92.52-1.27s.77-.52,1.27-.52h6.21c.5,0,.92.18,1.27.52.35.35.52.77.52,1.27v49.56c0,.5-.18.92-.52,1.27-.35.35-.77.52-1.27.52h-6.21Z"/><path class="b" d="M269.94,308.86c-.55,0-.99-.16-1.31-.49-.33-.32-.49-.76-.49-1.31v-5.39c0-.5.16-.92.49-1.27.32-.35.76-.52,1.31-.52h6.81c.55,0,1,.17,1.35.52.35.35.52.77.52,1.27v5.39c0,.55-.18.99-.52,1.31-.35.33-.8.49-1.35.49h-6.81ZM270.24,354.23c-.5,0-.92-.17-1.27-.52-.35-.35-.52-.77-.52-1.27v-35.34c0-.5.17-.92.52-1.27.35-.35.77-.52,1.27-.52h6.21c.55,0,.99.18,1.31.52.32.35.49.77.49,1.27v35.34c0,.5-.16.92-.49,1.27-.33.35-.76.52-1.31.52h-6.21Z"/><path class="b" d="M304.98,354.98c-5.54,0-9.93-1.6-13.18-4.79-3.25-3.19-4.99-7.74-5.24-13.62-.05-.5-.07-1.13-.07-1.91s.02-1.39.07-1.83c.2-3.74,1.06-6.99,2.58-9.73,1.52-2.74,3.63-4.85,6.33-6.33,2.7-1.47,5.86-2.21,9.51-2.21,4.04,0,7.44.84,10.18,2.51,2.74,1.67,4.82,3.99,6.21,6.96,1.4,2.97,2.1,6.4,2.1,10.29v1.57c0,.5-.18.92-.52,1.27-.35.35-.8.52-1.35.52h-24.86v.6c.05,1.75.39,3.36,1.01,4.83.62,1.47,1.55,2.66,2.77,3.56,1.22.9,2.68,1.35,4.38,1.35,1.4,0,2.57-.21,3.52-.64.95-.42,1.72-.91,2.32-1.46.6-.55,1.02-1,1.27-1.35.45-.6.81-.96,1.09-1.08.27-.12.69-.19,1.24-.19h6.44c.5,0,.91.15,1.24.45.32.3.46.67.41,1.12-.05.8-.46,1.77-1.24,2.92-.77,1.15-1.88,2.27-3.33,3.37-1.45,1.1-3.26,2.01-5.43,2.73-2.17.72-4.65,1.09-7.45,1.09ZM296.74,331.4h16.55v-.22c0-1.95-.33-3.64-.97-5.09-.65-1.45-1.6-2.59-2.84-3.44-1.25-.85-2.75-1.27-4.49-1.27s-3.24.42-4.49,1.27c-1.25.85-2.18,2-2.81,3.44-.62,1.45-.94,3.14-.94,5.09v.22Z"/><path class="b" d="M345.86,354.98c-2.6,0-4.88-.44-6.85-1.31-1.97-.87-3.61-2.11-4.9-3.71-1.3-1.6-2.3-3.48-2.99-5.65-.7-2.17-1.1-4.55-1.2-7.15-.05-.9-.07-1.71-.07-2.43s.02-1.53.07-2.43c.1-2.5.49-4.82,1.16-6.96.67-2.15,1.67-4.03,2.99-5.65,1.32-1.62,2.97-2.88,4.94-3.78,1.97-.9,4.25-1.35,6.85-1.35s4.98.46,6.85,1.38c1.87.92,3.43,2.11,4.68,3.56v-16.62c0-.5.16-.92.49-1.27.32-.35.76-.52,1.31-.52h6.36c.5,0,.92.18,1.27.52.35.35.52.77.52,1.27v49.56c0,.5-.18.92-.52,1.27-.35.35-.77.52-1.27.52h-5.91c-.55,0-.99-.17-1.31-.52-.33-.35-.49-.77-.49-1.27v-2.77c-1.25,1.55-2.83,2.82-4.75,3.82-1.92,1-4.33,1.5-7.22,1.5ZM348.63,346.97c2.1,0,3.77-.47,5.02-1.42,1.25-.95,2.17-2.16,2.77-3.63.6-1.47.92-2.98.97-4.53.05-.9.08-1.86.08-2.88s-.03-1.98-.08-2.88c-.05-1.5-.4-2.93-1.05-4.3-.65-1.37-1.6-2.51-2.84-3.41-1.25-.9-2.87-1.35-4.87-1.35-2.1,0-3.76.46-4.98,1.38-1.22.92-2.11,2.13-2.66,3.63-.55,1.5-.87,3.14-.97,4.94-.05,1.5-.05,2.99,0,4.49.1,1.8.42,3.44.97,4.94.55,1.5,1.43,2.71,2.66,3.63,1.22.92,2.88,1.39,4.98,1.39Z"/><path class="b" d="M397.14,354.23c-.5,0-.92-.17-1.27-.52-.35-.35-.52-.77-.52-1.27v-48.74c0-.55.17-1,.52-1.35.35-.35.77-.52,1.27-.52h19.39c6.04,0,10.81,1.4,14.3,4.19,3.49,2.8,5.24,6.86,5.24,12.2,0,3.69-.91,6.76-2.73,9.21-1.82,2.45-4.26,4.22-7.3,5.32l10.93,19.09c.15.3.22.57.22.82,0,.45-.16.82-.49,1.12-.33.3-.69.45-1.09.45h-6.81c-.85,0-1.5-.22-1.95-.67-.45-.45-.8-.9-1.05-1.35l-9.66-17.74h-10.41v17.97c0,.5-.16.92-.49,1.27-.33.35-.76.52-1.31.52h-6.81ZM405.75,326.01h10.56c3.04,0,5.32-.69,6.81-2.06,1.5-1.37,2.25-3.31,2.25-5.8s-.74-4.46-2.21-5.88c-1.47-1.42-3.76-2.13-6.85-2.13h-10.56v15.87Z"/><path class="b" d="M461.6,354.98c-3.99,0-7.35-.7-10.07-2.1-2.72-1.4-4.79-3.37-6.21-5.91-1.42-2.55-2.23-5.51-2.43-8.91-.05-.9-.07-2-.07-3.29s.02-2.4.07-3.29c.2-3.44,1.04-6.43,2.51-8.95,1.47-2.52,3.57-4.48,6.29-5.88,2.72-1.4,6.03-2.1,9.92-2.1s7.2.7,9.92,2.1c2.72,1.4,4.82,3.36,6.29,5.88,1.47,2.52,2.31,5.5,2.51,8.95.05.9.07,2,.07,3.29s-.03,2.4-.07,3.29c-.2,3.39-1.01,6.36-2.43,8.91-1.42,2.54-3.49,4.52-6.21,5.91-2.72,1.4-6.08,2.1-10.07,2.1ZM461.6,347.57c2.65,0,4.69-.83,6.14-2.51,1.45-1.67,2.25-4.13,2.4-7.37.05-.75.07-1.72.07-2.92s-.03-2.17-.07-2.92c-.15-3.19-.95-5.64-2.4-7.34-1.45-1.7-3.49-2.55-6.14-2.55s-4.69.85-6.14,2.55c-1.45,1.7-2.25,4.14-2.4,7.34-.05.75-.07,1.72-.07,2.92s.02,2.17.07,2.92c.15,3.24.95,5.7,2.4,7.37,1.45,1.67,3.49,2.51,6.14,2.51Z"/><path class="b" d="M510.26,354.98c-2.9,0-5.3-.5-7.22-1.5-1.92-1-3.51-2.27-4.75-3.82v2.77c0,.5-.16.92-.49,1.27-.33.35-.76.52-1.31.52h-5.91c-.5,0-.92-.17-1.27-.52-.35-.35-.52-.77-.52-1.27v-49.56c0-.5.17-.92.52-1.27s.77-.52,1.27-.52h6.36c.55,0,.98.18,1.31.52.32.35.49.77.49,1.27v16.62c1.25-1.45,2.81-2.63,4.68-3.56,1.87-.92,4.16-1.38,6.85-1.38s4.94.45,6.89,1.35c1.95.9,3.58,2.16,4.9,3.78,1.32,1.62,2.33,3.51,3.03,5.65.7,2.15,1.07,4.47,1.12,6.96.05.9.07,1.71.07,2.43s-.03,1.54-.07,2.43c-.1,2.6-.5,4.98-1.2,7.15-.7,2.17-1.7,4.06-2.99,5.65-1.3,1.6-2.92,2.83-4.87,3.71-1.95.87-4.24,1.31-6.89,1.31ZM507.49,346.97c2.15,0,3.82-.46,5.02-1.39,1.2-.92,2.06-2.13,2.58-3.63.52-1.5.83-3.14.94-4.94.1-1.5.1-3,0-4.49-.1-1.8-.41-3.44-.94-4.94-.52-1.5-1.39-2.71-2.58-3.63-1.2-.92-2.87-1.38-5.02-1.38-2,0-3.62.45-4.87,1.35-1.25.9-2.2,2.03-2.84,3.41-.65,1.37-1,2.81-1.05,4.3-.05.9-.07,1.86-.07,2.88s.02,1.98.07,2.88c.1,1.55.44,3.06,1.01,4.53.57,1.47,1.5,2.68,2.77,3.63,1.27.95,2.93,1.42,4.98,1.42Z"/><path class="b" d="M551.81,354.98c-3.99,0-7.35-.7-10.07-2.1-2.72-1.4-4.79-3.37-6.21-5.91-1.42-2.55-2.23-5.51-2.43-8.91-.05-.9-.07-2-.07-3.29s.02-2.4.07-3.29c.2-3.44,1.04-6.43,2.51-8.95,1.47-2.52,3.57-4.48,6.29-5.88,2.72-1.4,6.03-2.1,9.92-2.1s7.2.7,9.92,2.1c2.72,1.4,4.82,3.36,6.29,5.88,1.47,2.52,2.31,5.5,2.51,8.95.05.9.07,2,.07,3.29s-.03,2.4-.07,3.29c-.2,3.39-1.01,6.36-2.43,8.91-1.42,2.54-3.49,4.52-6.21,5.91-2.72,1.4-6.08,2.1-10.07,2.1ZM551.81,347.57c2.65,0,4.69-.83,6.14-2.51,1.45-1.67,2.25-4.13,2.4-7.37.05-.75.07-1.72.07-2.92s-.03-2.17-.07-2.92c-.15-3.19-.95-5.64-2.4-7.34-1.45-1.7-3.49-2.55-6.14-2.55s-4.69.85-6.14,2.55c-1.45,1.7-2.25,4.14-2.4,7.34-.05.75-.07,1.72-.07,2.92s.02,2.17.07,2.92c.15,3.24.95,5.7,2.4,7.37,1.45,1.67,3.49,2.51,6.14,2.51Z"/><path class="b" d="M596.21,354.23c-2.99,0-5.52-.52-7.56-1.57-2.05-1.05-3.57-2.61-4.57-4.68-1-2.07-1.5-4.65-1.5-7.75v-16.99h-5.91c-.5,0-.92-.17-1.27-.52-.35-.35-.52-.77-.52-1.27v-4.34c0-.5.17-.92.52-1.27s.77-.52,1.27-.52h5.91v-12.43c0-.5.16-.92.49-1.27.32-.35.76-.52,1.31-.52h6.06c.5,0,.92.18,1.27.52.35.35.52.77.52,1.27v12.43h9.36c.5,0,.92.18,1.27.52.35.35.52.77.52,1.27v4.34c0,.5-.18.92-.52,1.27s-.77.52-1.27.52h-9.36v16.25c0,2.05.36,3.64,1.09,4.79.72,1.15,1.98,1.72,3.78,1.72h5.17c.5,0,.92.18,1.27.52.35.35.52.77.52,1.27v4.64c0,.5-.18.92-.52,1.27-.35.35-.77.52-1.27.52h-6.06Z"/><path class="b" d="M612.23,308.86c-.55,0-.99-.16-1.31-.49-.33-.32-.49-.76-.49-1.31v-5.39c0-.5.16-.92.49-1.27.32-.35.76-.52,1.31-.52h6.81c.55,0,1,.17,1.35.52.35.35.52.77.52,1.27v5.39c0,.55-.18.99-.52,1.31-.35.33-.8.49-1.35.49h-6.81ZM612.53,354.23c-.5,0-.92-.17-1.27-.52-.35-.35-.52-.77-.52-1.27v-35.34c0-.5.17-.92.52-1.27.35-.35.77-.52,1.27-.52h6.21c.55,0,.99.18,1.31.52.32.35.49.77.49,1.27v35.34c0,.5-.16.92-.49,1.27-.33.35-.76.52-1.31.52h-6.21Z"/><path class="b" d="M647.34,354.98c-3.59,0-6.75-.67-9.47-2.02-2.72-1.35-4.84-3.31-6.36-5.88-1.52-2.57-2.36-5.68-2.51-9.32-.05-.75-.07-1.73-.07-2.96s.02-2.23.07-3.03c.15-3.64.98-6.75,2.51-9.32,1.52-2.57,3.64-4.53,6.36-5.88,2.72-1.35,5.88-2.02,9.47-2.02,3.19,0,5.91.45,8.16,1.35s4.09,2.02,5.54,3.37c1.45,1.35,2.53,2.76,3.26,4.23.72,1.47,1.11,2.81,1.16,4,.05.55-.11.99-.49,1.31-.37.33-.81.49-1.31.49h-6.59c-.5,0-.89-.12-1.16-.37-.27-.25-.54-.62-.79-1.12-.75-2-1.73-3.41-2.96-4.23-1.22-.82-2.78-1.24-4.68-1.24-2.5,0-4.48.79-5.95,2.36-1.47,1.57-2.26,4.05-2.36,7.45-.1,1.9-.1,3.64,0,5.24.1,3.44.89,5.94,2.36,7.49,1.47,1.55,3.46,2.32,5.95,2.32,1.95,0,3.52-.41,4.72-1.24,1.2-.82,2.17-2.23,2.92-4.23.25-.5.51-.87.79-1.12.27-.25.66-.37,1.16-.37h6.59c.5,0,.94.16,1.31.49.37.33.54.76.49,1.31-.05.9-.29,1.91-.71,3.03-.42,1.12-1.1,2.27-2.02,3.44-.92,1.17-2.08,2.25-3.48,3.22-1.4.97-3.08,1.76-5.05,2.36-1.97.6-4.26.9-6.85.9Z"/><path class="b" d="M687.99,354.98c-2.99,0-5.55-.35-7.67-1.05-2.12-.7-3.86-1.57-5.2-2.62-1.35-1.05-2.35-2.1-2.99-3.14-.65-1.05-1-1.92-1.05-2.62-.05-.55.11-.98.49-1.31.37-.32.79-.49,1.24-.49h5.91c.2,0,.37.03.52.08.15.05.35.2.6.45.65.55,1.33,1.12,2.06,1.72.72.6,1.58,1.11,2.58,1.54,1,.42,2.25.64,3.74.64,1.95,0,3.58-.39,4.9-1.16,1.32-.77,1.98-1.88,1.98-3.33,0-1.05-.29-1.9-.86-2.55-.57-.65-1.64-1.24-3.18-1.76-1.55-.52-3.74-1.08-6.59-1.68-2.8-.65-5.12-1.47-6.96-2.47-1.85-1-3.22-2.25-4.12-3.74-.9-1.5-1.35-3.24-1.35-5.24s.59-3.81,1.76-5.58c1.17-1.77,2.92-3.23,5.24-4.38,2.32-1.15,5.2-1.72,8.65-1.72,2.7,0,5.04.34,7.04,1.01,2,.67,3.66,1.51,4.98,2.51,1.32,1,2.33,2.01,3.03,3.03.7,1.02,1.07,1.91,1.12,2.66.05.55-.1.99-.45,1.31-.35.33-.75.49-1.2.49h-5.54c-.25,0-.47-.05-.67-.15-.2-.1-.4-.22-.6-.37-.55-.5-1.15-1.02-1.8-1.57-.65-.55-1.44-1.04-2.36-1.46-.92-.42-2.13-.64-3.63-.64-1.9,0-3.34.41-4.34,1.24-1,.82-1.5,1.86-1.5,3.11,0,.85.24,1.59.71,2.21.47.62,1.43,1.21,2.88,1.76,1.45.55,3.64,1.12,6.59,1.72,3.34.6,6,1.49,7.97,2.66,1.97,1.17,3.37,2.52,4.19,4.04.82,1.52,1.24,3.21,1.24,5.05,0,2.25-.66,4.27-1.98,6.06-1.32,1.8-3.27,3.21-5.84,4.23-2.57,1.02-5.75,1.54-9.55,1.54Z"/><path class="b" d="M741.52,354.98c-2.6,0-4.94-.51-7.04-1.54s-3.76-2.4-4.98-4.12c-1.22-1.72-1.83-3.66-1.83-5.8,0-3.49,1.41-6.28,4.23-8.35,2.82-2.07,6.55-3.46,11.19-4.15l10.26-1.5v-1.57c0-2.1-.52-3.72-1.57-4.87-1.05-1.15-2.84-1.72-5.39-1.72-1.8,0-3.26.36-4.38,1.09s-1.96,1.68-2.51,2.88c-.4.65-.97.97-1.72.97h-5.91c-.55,0-.96-.15-1.24-.45-.27-.3-.41-.7-.41-1.2.05-.8.37-1.77.97-2.92.6-1.15,1.55-2.26,2.84-3.33,1.3-1.07,2.97-1.98,5.02-2.73,2.05-.75,4.52-1.12,7.41-1.12,3.14,0,5.8.39,7.97,1.16,2.17.77,3.9,1.81,5.2,3.11,1.3,1.3,2.25,2.82,2.85,4.57.6,1.75.9,3.59.9,5.54v23.51c0,.5-.18.92-.52,1.27-.35.35-.77.52-1.27.52h-6.06c-.55,0-.99-.17-1.31-.52-.33-.35-.49-.77-.49-1.27v-2.92c-.65.95-1.52,1.83-2.62,2.66-1.1.82-2.43,1.5-4.01,2.02-1.57.52-3.43.79-5.58.79ZM744.07,347.87c1.75,0,3.33-.38,4.75-1.12,1.42-.75,2.55-1.91,3.37-3.48.82-1.57,1.23-3.56,1.23-5.95v-1.57l-7.49,1.2c-2.95.45-5.14,1.17-6.59,2.17-1.45,1-2.17,2.22-2.17,3.67,0,1.1.34,2.03,1.01,2.81.67.77,1.53,1.35,2.58,1.72,1.05.37,2.15.56,3.29.56Z"/><path class="b" d="M774.76,354.23c-.5,0-.92-.17-1.27-.52-.35-.35-.52-.77-.52-1.27v-35.34c0-.5.17-.92.52-1.27.35-.35.77-.52,1.27-.52h6.14c.5,0,.92.18,1.27.52.35.35.52.77.52,1.27v3.07c1.3-1.6,2.96-2.93,4.98-4,2.02-1.07,4.53-1.61,7.52-1.61s5.69.69,7.94,2.06c2.25,1.37,3.98,3.31,5.2,5.8,1.22,2.5,1.83,5.49,1.83,8.98v21.04c0,.5-.18.92-.52,1.27-.35.35-.77.52-1.27.52h-6.59c-.5,0-.92-.17-1.27-.52-.35-.35-.52-.77-.52-1.27v-20.59c0-2.89-.71-5.17-2.13-6.81-1.42-1.65-3.48-2.47-6.18-2.47s-4.67.82-6.21,2.47c-1.55,1.65-2.32,3.92-2.32,6.81v20.59c0,.5-.18.92-.52,1.27-.35.35-.77.52-1.27.52h-6.59Z"/><path class="b" d="M834.13,354.98c-2.6,0-4.88-.44-6.85-1.31-1.97-.87-3.61-2.11-4.9-3.71-1.3-1.6-2.3-3.48-2.99-5.65-.7-2.17-1.1-4.55-1.2-7.15-.05-.9-.07-1.71-.07-2.43s.02-1.53.07-2.43c.1-2.5.49-4.82,1.16-6.96.67-2.15,1.67-4.03,2.99-5.65,1.32-1.62,2.97-2.88,4.94-3.78,1.97-.9,4.25-1.35,6.85-1.35s4.98.46,6.85,1.38c1.87.92,3.43,2.11,4.68,3.56v-16.62c0-.5.16-.92.49-1.27.32-.35.76-.52,1.31-.52h6.36c.5,0,.92.18,1.27.52.35.35.52.77.52,1.27v49.56c0,.5-.18.92-.52,1.27-.35.35-.77.52-1.27.52h-5.91c-.55,0-.99-.17-1.31-.52-.33-.35-.49-.77-.49-1.27v-2.77c-1.25,1.55-2.83,2.82-4.75,3.82-1.92,1-4.33,1.5-7.22,1.5ZM836.9,346.97c2.1,0,3.77-.47,5.02-1.42,1.25-.95,2.17-2.16,2.77-3.63.6-1.47.92-2.98.97-4.53.05-.9.08-1.86.08-2.88s-.03-1.98-.08-2.88c-.05-1.5-.4-2.93-1.05-4.3-.65-1.37-1.6-2.51-2.84-3.41-1.25-.9-2.87-1.35-4.87-1.35-2.1,0-3.76.46-4.98,1.38-1.22.92-2.11,2.13-2.66,3.63-.55,1.5-.87,3.14-.97,4.94-.05,1.5-.05,2.99,0,4.49.1,1.8.42,3.44.97,4.94.55,1.5,1.43,2.71,2.66,3.63,1.22.92,2.88,1.39,4.98,1.39Z"/><path class="b" d="M878.45,354.23c-.4,0-.76-.15-1.09-.45-.33-.3-.49-.67-.49-1.12,0-.2.05-.42.15-.67l18.04-48.29c.15-.5.44-.94.86-1.31.42-.37,1.01-.56,1.76-.56h8.16c.75,0,1.32.19,1.72.56.4.37.7.81.9,1.31l18.04,48.29c.05.25.08.47.08.67,0,.45-.15.82-.45,1.12s-.65.45-1.05.45h-6.51c-.7,0-1.21-.16-1.53-.49-.33-.32-.54-.64-.64-.94l-3.52-9.13h-22.24l-3.52,9.13c-.1.3-.31.61-.64.94s-.84.49-1.53.49h-6.51ZM893.28,335.07h16.99l-8.53-23.13-8.46,23.13Z"/><path class="b" d="M935.35,354.23c-.5,0-.92-.17-1.27-.52-.35-.35-.52-.77-.52-1.27v-48.81c0-.5.17-.92.52-1.27.35-.35.77-.52,1.27-.52h7.04c.55,0,.98.18,1.31.52.32.35.49.77.49,1.27v48.81c0,.5-.16.92-.49,1.27-.33.35-.76.52-1.31.52h-7.04Z"/><path class="b" d="M991.28,354.98c-4.64,0-8.52-.69-11.64-2.06-3.12-1.37-5.49-3.17-7.11-5.39-1.62-2.22-2.48-4.55-2.58-7,0-.45.15-.82.45-1.12.3-.3.67-.45,1.12-.45h6.66c.65,0,1.13.14,1.46.41.32.28.61.61.86,1.01.3.95.87,1.88,1.72,2.81.85.92,2.01,1.68,3.48,2.28,1.47.6,3.33.9,5.58.9,3.59,0,6.28-.6,8.05-1.8,1.77-1.2,2.66-2.82,2.66-4.87,0-1.45-.48-2.61-1.42-3.48-.95-.87-2.41-1.67-4.38-2.4-1.97-.72-4.58-1.48-7.82-2.28-3.74-.9-6.88-1.98-9.4-3.26-2.52-1.27-4.42-2.88-5.69-4.83-1.27-1.95-1.91-4.42-1.91-7.41s.79-5.46,2.36-7.71,3.82-4.02,6.74-5.32,6.4-1.95,10.44-1.95c3.24,0,6.11.44,8.61,1.31,2.5.87,4.57,2.02,6.21,3.44,1.65,1.42,2.91,2.95,3.78,4.57.87,1.62,1.33,3.21,1.39,4.75,0,.4-.14.76-.41,1.09-.27.33-.66.49-1.16.49h-6.96c-.4,0-.8-.1-1.2-.3-.4-.2-.72-.57-.97-1.12-.3-1.55-1.27-2.87-2.92-3.97-1.65-1.1-3.77-1.65-6.36-1.65s-4.87.5-6.51,1.5c-1.65,1-2.47,2.54-2.47,4.64,0,1.4.41,2.56,1.24,3.48.82.92,2.15,1.73,3.97,2.43,1.82.7,4.23,1.45,7.22,2.25,4.24.95,7.71,2.05,10.41,3.29,2.7,1.25,4.67,2.83,5.91,4.75,1.25,1.92,1.87,4.36,1.87,7.3,0,3.29-.89,6.1-2.66,8.42-1.77,2.32-4.26,4.11-7.45,5.35-3.19,1.25-6.91,1.87-11.15,1.87Z"/><path class="b" d="M1037.47,354.98c-3.99,0-7.35-.7-10.07-2.1-2.72-1.4-4.79-3.37-6.21-5.91-1.42-2.55-2.23-5.51-2.43-8.91-.05-.9-.07-2-.07-3.29s.02-2.4.07-3.29c.2-3.44,1.04-6.43,2.51-8.95,1.47-2.52,3.57-4.48,6.29-5.88,2.72-1.4,6.03-2.1,9.92-2.1s7.2.7,9.92,2.1c2.72,1.4,4.82,3.36,6.29,5.88,1.47,2.52,2.31,5.5,2.51,8.95.05.9.07,2,.07,3.29s-.03,2.4-.07,3.29c-.2,3.39-1.01,6.36-2.43,8.91-1.42,2.54-3.49,4.52-6.21,5.91-2.72,1.4-6.08,2.1-10.07,2.1ZM1037.47,347.57c2.65,0,4.69-.83,6.14-2.51,1.45-1.67,2.25-4.13,2.4-7.37.05-.75.07-1.72.07-2.92s-.03-2.17-.07-2.92c-.15-3.19-.95-5.64-2.4-7.34-1.45-1.7-3.49-2.55-6.14-2.55s-4.69.85-6.14,2.55c-1.45,1.7-2.25,4.14-2.4,7.34-.05.75-.07,1.72-.07,2.92s.02,2.17.07,2.92c.15,3.24.95,5.7,2.4,7.37,1.45,1.67,3.49,2.51,6.14,2.51Z"/><path class="b" d="M1066.44,354.23c-.5,0-.92-.17-1.27-.52-.35-.35-.52-.77-.52-1.27v-49.56c0-.5.17-.92.52-1.27s.77-.52,1.27-.52h6.21c.5,0,.92.18,1.27.52.35.35.52.77.52,1.27v49.56c0,.5-.18.92-.52,1.27-.35.35-.77.52-1.27.52h-6.21Z"/><path class="b" d="M1098.86,354.98c-3.04,0-5.68-.69-7.9-2.06-2.22-1.37-3.93-3.32-5.13-5.84-1.2-2.52-1.8-5.5-1.8-8.95v-21.04c0-.5.17-.92.52-1.27s.77-.52,1.27-.52h6.59c.55,0,.99.18,1.31.52.32.35.49.77.49,1.27v20.59c0,6.19,2.72,9.28,8.16,9.28,2.59,0,4.65-.82,6.18-2.47,1.52-1.65,2.28-3.92,2.28-6.81v-20.59c0-.5.17-.92.52-1.27.35-.35.77-.52,1.27-.52h6.59c.5,0,.92.18,1.27.52.35.35.52.77.52,1.27v35.34c0,.5-.18.92-.52,1.27-.35.35-.77.52-1.27.52h-6.06c-.55,0-.99-.17-1.31-.52-.33-.35-.49-.77-.49-1.27v-3.07c-1.35,1.75-3.02,3.12-5.02,4.12-2,1-4.49,1.5-7.49,1.5Z"/><path class="b" d="M1148.5,354.23c-2.99,0-5.52-.52-7.56-1.57-2.05-1.05-3.57-2.61-4.57-4.68-1-2.07-1.5-4.65-1.5-7.75v-16.99h-5.91c-.5,0-.92-.17-1.27-.52-.35-.35-.52-.77-.52-1.27v-4.34c0-.5.17-.92.52-1.27s.77-.52,1.27-.52h5.91v-12.43c0-.5.16-.92.49-1.27.32-.35.76-.52,1.31-.52h6.06c.5,0,.92.18,1.27.52.35.35.52.77.52,1.27v12.43h9.36c.5,0,.92.18,1.27.52.35.35.52.77.52,1.27v4.34c0,.5-.18.92-.52,1.27s-.77.52-1.27.52h-9.36v16.25c0,2.05.36,3.64,1.09,4.79.72,1.15,1.98,1.72,3.78,1.72h5.17c.5,0,.92.18,1.27.52.35.35.52.77.52,1.27v4.64c0,.5-.18.92-.52,1.27-.35.35-.77.52-1.27.52h-6.06Z"/><path class="b" d="M1164.52,308.86c-.55,0-.99-.16-1.31-.49-.33-.32-.49-.76-.49-1.31v-5.39c0-.5.16-.92.49-1.27.32-.35.76-.52,1.31-.52h6.81c.55,0,1,.17,1.35.52.35.35.52.77.52,1.27v5.39c0,.55-.18.99-.52,1.31-.35.33-.8.49-1.35.49h-6.81ZM1164.82,354.23c-.5,0-.92-.17-1.27-.52-.35-.35-.52-.77-.52-1.27v-35.34c0-.5.17-.92.52-1.27.35-.35.77-.52,1.27-.52h6.21c.55,0,.99.18,1.31.52.32.35.49.77.49,1.27v35.34c0,.5-.16.92-.49,1.27-.33.35-.76.52-1.31.52h-6.21Z"/><path class="b" d="M1200,354.98c-3.99,0-7.35-.7-10.07-2.1-2.72-1.4-4.79-3.37-6.21-5.91-1.42-2.55-2.23-5.51-2.43-8.91-.05-.9-.07-2-.07-3.29s.02-2.4.07-3.29c.2-3.44,1.04-6.43,2.51-8.95,1.47-2.52,3.57-4.48,6.29-5.88,2.72-1.4,6.03-2.1,9.92-2.1s7.2.7,9.92,2.1c2.72,1.4,4.82,3.36,6.29,5.88,1.47,2.52,2.31,5.5,2.51,8.95.05.9.07,2,.07,3.29s-.03,2.4-.07,3.29c-.2,3.39-1.01,6.36-2.43,8.91-1.42,2.54-3.49,4.52-6.21,5.91-2.72,1.4-6.08,2.1-10.07,2.1ZM1200,347.57c2.65,0,4.69-.83,6.14-2.51,1.45-1.67,2.25-4.13,2.4-7.37.05-.75.07-1.72.07-2.92s-.03-2.17-.07-2.92c-.15-3.19-.95-5.64-2.4-7.34-1.45-1.7-3.49-2.55-6.14-2.55s-4.69.85-6.14,2.55c-1.45,1.7-2.25,4.14-2.4,7.34-.05.75-.07,1.72-.07,2.92s.02,2.17.07,2.92c.15,3.24.95,5.7,2.4,7.37,1.45,1.67,3.49,2.51,6.14,2.51Z"/><path class="b" d="M1228.9,354.23c-.5,0-.92-.17-1.27-.52-.35-.35-.52-.77-.52-1.27v-35.34c0-.5.17-.92.52-1.27.35-.35.77-.52,1.27-.52h6.14c.5,0,.92.18,1.27.52.35.35.52.77.52,1.27v3.07c1.3-1.6,2.96-2.93,4.98-4,2.02-1.07,4.53-1.61,7.52-1.61s5.69.69,7.94,2.06c2.25,1.37,3.98,3.31,5.2,5.8,1.22,2.5,1.83,5.49,1.83,8.98v21.04c0,.5-.18.92-.52,1.27-.35.35-.77.52-1.27.52h-6.59c-.5,0-.92-.17-1.27-.52-.35-.35-.52-.77-.52-1.27v-20.59c0-2.89-.71-5.17-2.13-6.81-1.42-1.65-3.48-2.47-6.18-2.47s-4.67.82-6.21,2.47c-1.55,1.65-2.32,3.92-2.32,6.81v20.59c0,.5-.18.92-.52,1.27-.35.35-.77.52-1.27.52h-6.59Z"/><path class="b" d="M1288.57,354.98c-2.99,0-5.55-.35-7.67-1.05-2.12-.7-3.86-1.57-5.2-2.62-1.35-1.05-2.35-2.1-2.99-3.14-.65-1.05-1-1.92-1.05-2.62-.05-.55.11-.98.49-1.31.37-.32.79-.49,1.24-.49h5.91c.2,0,.37.03.52.08.15.05.35.2.6.45.65.55,1.33,1.12,2.06,1.72.72.6,1.58,1.11,2.58,1.54,1,.42,2.25.64,3.74.64,1.95,0,3.58-.39,4.9-1.16,1.32-.77,1.98-1.88,1.98-3.33,0-1.05-.29-1.9-.86-2.55-.57-.65-1.64-1.24-3.18-1.76-1.55-.52-3.74-1.08-6.59-1.68-2.8-.65-5.12-1.47-6.96-2.47-1.85-1-3.22-2.25-4.12-3.74-.9-1.5-1.35-3.24-1.35-5.24s.59-3.81,1.76-5.58c1.17-1.77,2.92-3.23,5.24-4.38,2.32-1.15,5.2-1.72,8.65-1.72,2.7,0,5.04.34,7.04,1.01,2,.67,3.66,1.51,4.98,2.51,1.32,1,2.33,2.01,3.03,3.03.7,1.02,1.07,1.91,1.12,2.66.05.55-.1.99-.45,1.31-.35.33-.75.49-1.2.49h-5.54c-.25,0-.47-.05-.67-.15-.2-.1-.4-.22-.6-.37-.55-.5-1.15-1.02-1.8-1.57-.65-.55-1.44-1.04-2.36-1.46-.92-.42-2.13-.64-3.63-.64-1.9,0-3.34.41-4.34,1.24-1,.82-1.5,1.86-1.5,3.11,0,.85.24,1.59.71,2.21.47.62,1.43,1.21,2.88,1.76,1.45.55,3.64,1.12,6.59,1.72,3.34.6,6,1.49,7.97,2.66,1.97,1.17,3.37,2.52,4.19,4.04.82,1.52,1.24,3.21,1.24,5.05,0,2.25-.66,4.27-1.98,6.06-1.32,1.8-3.27,3.21-5.84,4.23-2.57,1.02-5.75,1.54-9.55,1.54Z"/></svg>